HIERARCHY
ROOT pelvis
{
	OFFSET 0.000000 0.000000 0.856440
	CHANNELS 6 Xposition Yposition Zposition Xrotation Yrotation Zrotation
	JOINT spine
	{
		OFFSET 0.000000 0.000000 0.000000
		CHANNELS 6 Xposition Yposition Zposition Xrotation Yrotation Zrotation
		JOINT spine.001
		{
			OFFSET 0.000000 -0.013183 0.251556
			CHANNELS 3 Xrotation Yrotation Zrotation
			JOINT neck
			{
				OFFSET 0.000000 0.030699 0.250023
				CHANNELS 6 Xposition Yposition Zposition Xrotation Yrotation Zrotation
				JOINT face
				{
					OFFSET 0.000000 0.003313 0.189830
					CHANNELS 6 Xposition Yposition Zposition Xrotation Yrotation Zrotation
					End Site
					{
						OFFSET 0.000000 -0.020757 -0.008279
					}
				}
			}
			JOINT shoulder.L
			{
				OFFSET 0.000000 0.030699 0.250023
				CHANNELS 6 Xposition Yposition Zposition Yrotation Xrotation Zrotation
				JOINT upper_arm.L
				{
					OFFSET 0.159135 0.000000 0.000000
					CHANNELS 6 Xposition Yposition Zposition Xrotation Yrotation Zrotation
					JOINT forearm.L
					{
						OFFSET 0.273564 0.000121 0.001002
						CHANNELS 6 Xposition Yposition Zposition Xrotation Yrotation Zrotation
						End Site
						{
							OFFSET 0.219387 -0.003719 -0.001376
						}
					}
				}
			}
			JOINT shoulder.R
			{
				OFFSET 0.000000 0.030699 0.250023
				CHANNELS 6 Xposition Yposition Zposition Yrotation Xrotation Zrotation
				JOINT upper_arm.R
				{
					OFFSET -0.159135 0.000000 0.000000
					CHANNELS 6 Xposition Yposition Zposition Xrotation Yrotation Zrotation
					JOINT forearm.R
					{
						OFFSET -0.268412 0.000121 0.001002
						CHANNELS 6 Xposition Yposition Zposition Xrotation Yrotation Zrotation
						End Site
						{
							OFFSET -0.228708 -0.003881 -0.001377
						}
					}
				}
			}
		}
	}
	JOINT pelvis.L
	{
		OFFSET 0.000000 0.000000 0.000000
		CHANNELS 6 Xposition Yposition Zposition Yrotation Xrotation Zrotation
		End Site
		{
			OFFSET 0.107785 0.000000 0.000000
		}
	}
	JOINT pelvis.R
	{
		OFFSET 0.000000 0.000000 0.000000
		CHANNELS 6 Xposition Yposition Zposition Yrotation Xrotation Zrotation
		End Site
		{
			OFFSET -0.107785 0.000000 0.000000
		}
	}
	JOINT thigh.L
	{
		OFFSET 0.107785 0.000000 0.000000
		CHANNELS 6 Xposition Yposition Zposition Xrotation Yrotation Zrotation
		JOINT shin.L
		{
			OFFSET 0.020459 0.000000 -0.390378
			CHANNELS 6 Xposition Yposition Zposition Xrotation Yrotation Zrotation
			JOINT foot.L
			{
				OFFSET 0.021412 0.000000 -0.408556
				CHANNELS 3 Xrotation Yrotation Zrotation
				End Site
				{
					OFFSET 0.015864 -0.161752 -0.067922
				}
			}
			JOINT heel.02.L
			{
				OFFSET 0.021412 0.000000 -0.408556
				CHANNELS 3 Xrotation Yrotation Zrotation
				End Site
				{
					OFFSET 0.105193 0.036022 -0.050974
				}
			}
		}
	}
	JOINT thigh.R
	{
		OFFSET -0.107785 0.000000 0.000000
		CHANNELS 6 Xposition Yposition Zposition Xrotation Yrotation Zrotation
		JOINT shin.R
		{
			OFFSET -0.021327 0.000000 -0.406942
			CHANNELS 6 Xposition Yposition Zposition Xrotation Yrotation Zrotation
			JOINT foot.R
			{
				OFFSET -0.019268 0.000000 -0.367658
				CHANNELS 3 Xrotation Yrotation Zrotation
				End Site
				{
					OFFSET -0.015756 -0.160651 -0.067460
				}
			}
			JOINT heel.02.R
			{
				OFFSET -0.019268 0.000000 -0.367658
				CHANNELS 3 Xrotation Yrotation Zrotation
				End Site
				{
					OFFSET -0.090853 0.036022 -0.076126
				}
			}
		}
	}
}
MOTION
Frames: 11
Frame Time: 0.041667
-0.036082 -0.008503 0.840013 -0.000000 0.000000 49.734781 0.000000 0.000000 -0.000000 -6.198538 -1.989552 -0.212617 9.994451 0.279541 2.277335 -0.000000 0.030699 0.250023 8.051471 -1.871342 -5.569055 -0.000000 0.003313 0.189830 -0.661315 -0.000001 -0.000003 -0.000000 0.030699 0.250024 -0.810832 0.000704 0.099469 0.159135 -0.000000 -0.000000 -14.027387 81.528942 16.175604 0.273564 0.000121 0.001002 0.802882 7.208293 -11.925973 -0.000000 0.030699 0.250023 -0.754776 0.000610 0.092611 -0.159135 0.000000 -0.000000 21.201660 -78.224463 25.939814 -0.268412 0.000121 0.001002 0.569751 -6.913278 8.286105 0.000000 0.000000 0.000000 -1.827191 -0.000000 -0.000029 0.000000 0.000000 0.000000 -1.827191 -0.000000 -0.000003 0.107731 0.000000 0.003437 9.292090 3.172937 0.230459 0.020459 0.000000 -0.390378 -9.692481 -8.124940 -1.194712 3.196567 3.991566 -9.567009 -25.032310 48.483568 49.750579 -0.107731 0.000000 -0.003437 9.397359 -5.037126 -0.079508 -0.021327 0.000000 -0.406942 -8.159236 8.673653 1.043966 -1.408739 0.878405 -1.699142 -10.128957 -47.538185 -36.274465 
-0.035177 -0.008831 0.841167 -0.000000 0.000000 49.539611 0.000000 -0.000000 0.000000 -6.348602 -2.019650 -0.218513 9.994472 0.277066 2.257425 0.000000 0.030699 0.250023 8.286888 -1.849088 -5.471321 -0.000000 0.003313 0.189830 -0.498393 0.000001 -0.000013 0.000000 0.030699 0.250023 -1.038406 0.001155 0.127459 0.159135 -0.000000 0.000000 -8.093679 81.504586 9.326488 0.273564 0.000121 0.001002 0.761953 7.761692 -10.185738 0.000000 0.030699 0.250023 -0.982355 0.001033 0.120518 -0.159135 0.000000 -0.000000 20.984747 -78.078618 25.741931 -0.268412 0.000121 0.001002 0.559837 -6.959578 8.031140 0.000000 -0.000000 0.000000 -1.814796 0.000001 0.000051 0.000000 -0.000000 0.000000 -1.814828 -0.000000 -0.000002 0.107731 0.000000 0.003413 9.285950 3.305803 0.219509 0.020459 -0.000000 -0.390378 -9.352821 -8.331176 -1.169445 2.700314 3.858053 -9.222806 -25.422198 48.727734 49.496947 -0.107731 0.000000 -0.003414 9.410631 -4.916117 -0.089622 -0.021327 -0.000000 -0.406942 -8.042791 8.470569 1.014819 -1.313619 0.902442 -1.779961 -10.290885 -47.580921 -36.171951 
-0.034591 -0.009134 0.841991 -0.000000 0.000000 49.441728 0.000000 0.000000 -0.000000 -6.471434 -2.040931 -0.223027 9.994548 0.274595 2.236971 0.000000 0.030699 0.250023 8.510749 -1.815565 -5.498196 0.000000 0.003314 0.189830 -0.375006 -0.000003 0.000000 0.000000 0.030699 0.250024 -1.140757 0.001393 0.139949 0.159134 0.000000 0.000000 -4.476273 81.346330 5.151921 0.273564 0.000121 0.001002 0.736423 8.199906 -9.091456 0.000000 0.030699 0.250024 -1.084655 0.001259 0.133118 -0.159135 0.000000 0.000000 20.894348 -78.017972 25.659057 -0.268412 0.000121 0.001002 0.549204 -6.926269 7.890784 0.000000 0.000000 -0.000000 -1.766105 -0.000001 -0.000044 0.000000 -0.000000 -0.000000 -1.766105 -0.000000 -0.000002 0.107734 -0.000000 0.003322 9.290013 3.411919 0.210974 0.020459 0.000000 -0.390378 -9.126098 -8.510357 -1.155198 2.238184 3.770553 -9.003888 -25.669741 48.883138 49.338838 -0.107734 -0.000000 -0.003322 9.430257 -4.837957 -0.096275 -0.021327 -0.000000 -0.406942 -7.971401 8.335248 0.996406 -1.311720 0.976579 -1.950889 -10.413014 -47.610079 -36.087106 
-0.034287 -0.009408 0.842532 -0.000000 0.000000 49.430219 0.000000 0.000000 -0.000000 -6.565196 -2.058299 -0.226626 9.994610 0.274584 2.236857 -0.000000 0.030699 0.250023 8.727667 -1.758705 -5.643971 0.000000 0.003313 0.189830 -0.282098 -0.000002 0.000003 -0.000000 0.030699 0.250023 -1.114199 0.001330 0.136765 0.159135 0.000000 -0.000000 -3.557985 81.176662 4.097293 0.273564 0.000121 0.001002 0.734964 8.391321 -8.795269 -0.000000 0.030699 0.250023 -1.058102 0.001199 0.129844 -0.159135 -0.000000 -0.000000 20.953034 -78.049248 25.716386 -0.268412 0.000121 0.001002 0.536644 -6.813883 7.837873 0.000000 -0.000000 0.000000 -1.711203 0.000000 0.000017 0.000000 -0.000000 0.000000 -1.711171 0.000000 0.000000 0.107737 0.000000 0.003219 9.316996 3.480974 0.205955 0.020459 -0.000000 -0.390378 -9.046738 -8.634695 -1.154900 1.867458 3.730343 -8.907619 -25.789862 48.960220 49.233855 -0.107737 0.000000 -0.003218 9.456331 -4.804094 -0.099355 -0.021327 -0.000000 -0.406942 -7.945450 8.279929 0.989321 -1.396679 1.082656 -2.170836 -10.469622 -47.611319 -36.018265 
-0.034003 -0.009672 0.843025 -0.000000 0.000000 49.416757 0.000000 0.000000 -0.000000 -6.644371 -2.084484 -0.230978 9.994333 0.279107 2.273979 0.000000 0.030699 0.250023 8.940143 -1.670901 -5.797206 0.000000 0.003313 0.189830 -0.193298 0.000001 -0.000003 0.000000 0.030699 0.250023 -1.057010 0.001197 0.129734 0.159135 0.000000 0.000000 -3.821531 81.065138 4.413127 0.273564 0.000121 0.001002 0.744177 8.386904 -8.937515 0.000000 0.030699 0.250023 -1.000956 0.001073 0.122826 -0.159135 0.000000 0.000000 21.079458 -78.107257 25.843969 -0.268412 0.000121 0.001002 0.521851 -6.684525 7.768268 0.000000 0.000000 -0.000000 -1.711615 -0.000000 -0.000032 0.000000 0.000000 -0.000000 -1.711583 -0.000000 -0.000010 0.107737 0.000000 0.003220 9.371393 3.520853 0.203880 0.020459 -0.000000 -0.390378 -9.062643 -8.693312 -1.161563 1.625885 3.703115 -8.843271 -25.889526 49.026367 49.109589 -0.107737 0.000000 -0.003219 9.481741 -4.786992 -0.101047 -0.021327 -0.000000 -0.406942 -7.932280 8.271480 0.987094 -1.489075 1.162500 -2.327692 -10.463882 -47.581748 -35.954850 
-0.033627 -0.009928 0.843522 -0.000000 0.000000 49.351549 0.000000 0.000000 -0.000000 -6.709177 -2.118816 -0.235994 9.994109 0.284708 2.319690 0.000000 0.030699 0.250023 9.114065 -1.564577 -5.861765 0.000000 0.003313 0.189830 -0.089084 0.000003 0.000001 0.000000 0.030699 0.250024 -1.044771 0.001168 0.128201 0.159135 0.000000 0.000000 -3.539308 80.993619 4.088868 0.273564 0.000121 0.001002 0.745012 8.350605 -9.001458 0.000000 0.030699 0.250024 -0.988671 0.001046 0.121339 -0.159135 -0.000000 0.000000 21.206554 -78.130568 25.987270 -0.268412 0.000121 0.001002 0.508015 -6.592587 7.652927 0.000000 0.000000 -0.000000 -1.774632 -0.000000 -0.000029 0.000000 0.000000 -0.000000 -1.774600 -0.000000 0.000003 0.107734 -0.000000 0.003338 9.439774 3.545337 0.203351 0.020459 0.000000 -0.390378 -9.100013 -8.709694 -1.167669 1.488714 3.668851 -8.760147 -26.026854 49.114104 49.003786 -0.107734 0.000000 -0.003338 9.498885 -4.770522 -0.102605 -0.021327 0.000000 -0.406942 -7.909663 8.277793 0.984699 -1.529645 1.194849 -2.390138 -10.411691 -47.527817 -35.892446 
-0.033297 -0.010135 0.843876 -0.000000 0.000000 49.264792 0.000000 0.000000 -0.000000 -6.740771 -2.144859 -0.239491 9.994194 0.284012 2.313886 0.000000 0.030699 0.250023 9.197655 -1.469148 -5.819305 0.000000 0.003313 0.189830 0.034936 -0.000000 0.000006 0.000000 0.030699 0.250023 -1.061963 0.001208 0.130340 0.159135 0.000000 0.000000 -2.217084 80.909868 2.546507 0.273564 0.000121 0.001002 0.732140 8.402621 -8.737713 0.000000 0.030699 0.250023 -1.005906 0.001084 0.123484 -0.159135 -0.000000 -0.000000 21.390797 -78.118363 26.215567 -0.268412 0.000121 0.001002 0.498867 -6.550234 7.544700 0.000000 -0.000000 0.000000 -1.839363 0.000001 0.000070 0.000000 -0.000000 0.000000 -1.839395 -0.000000 -0.000002 0.107730 -0.000000 0.003460 9.497202 3.562012 0.203209 0.020459 0.000000 -0.390378 -9.120900 -8.719077 -1.171102 1.401359 3.635126 -8.677849 -26.178028 49.205694 48.976906 -0.107730 -0.000000 -0.003460 9.506106 -4.759609 -0.103590 -0.021327 0.000000 -0.406942 -7.883714 8.288436 0.982199 -1.516829 1.210018 -2.428438 -10.327465 -47.462100 -35.843105 
-0.033149 -0.010243 0.844008 -0.000000 0.000000 49.207767 0.000000 0.000000 -0.000000 -6.733102 -2.152009 -0.240146 9.994592 0.274605 2.236989 -0.000000 0.030699 0.250023 9.192415 -1.405285 -5.717145 0.000000 0.003314 0.189830 0.158020 -0.000001 -0.000016 -0.000000 0.030699 0.250024 -1.057742 0.001199 0.129860 0.159135 0.000000 -0.000000 -0.739921 80.808924 0.817837 0.273564 0.000121 0.001002 0.714518 8.523205 -8.317127 -0.000000 0.030699 0.250024 -1.001730 0.001075 0.122967 -0.159135 -0.000000 -0.000000 21.703237 -78.109476 26.597168 -0.268412 0.000121 0.001002 0.494744 -6.541668 7.478505 0.000000 0.000000 0.000000 -1.848905 -0.000000 -0.000002 0.000000 0.000000 0.000000 -1.848937 -0.000000 -0.000002 0.107729 0.000000 0.003478 9.527130 3.573003 0.202933 0.020459 -0.000000 -0.390378 -9.125216 -8.738234 -1.173176 1.331767 3.612696 -8.623604 -26.302290 49.278135 49.001970 -0.107729 -0.000000 -0.003478 9.510536 -4.759024 -0.103684 -0.021327 -0.000000 -0.406942 -7.874538 8.301147 0.981918 -1.477184 1.237437 -2.502440 -10.227712 -47.402780 -35.829099 
-0.033114 -0.010271 0.844005 -0.000000 0.000000 49.200366 0.000000 0.000000 0.000000 -6.713676 -2.148756 -0.239409 9.994986 0.262135 2.135696 0.000000 0.030699 0.250024 9.170563 -1.368408 -5.626617 -0.000000 0.003313 0.189830 0.243191 -0.000002 -0.000005 0.000000 0.030699 0.250023 -1.025113 0.001125 0.125800 0.159135 -0.000000 0.000000 -0.157780 80.750656 0.134942 0.273564 0.000121 0.001002 0.704770 8.597155 -8.080493 0.000000 0.030699 0.250023 -0.969015 0.001005 0.118920 -0.159135 -0.000000 -0.000000 22.030186 -78.124196 26.985427 -0.268412 0.000121 0.001002 0.493155 -6.547183 7.438896 0.000000 0.000000 0.000000 -1.807917 0.000001 0.000065 0.000000 0.000000 0.000000 -1.807917 -0.000000 -0.000002 0.107732 0.000000 0.003400 9.535236 3.580257 0.202503 0.020459 -0.000000 -0.390378 -9.125975 -8.762986 -1.175248 1.275174 3.603655 -8.602453 -26.384567 49.326246 49.014879 -0.107732 0.000000 -0.003401 9.525553 -4.763329 -0.103486 -0.021327 0.000000 -0.406942 -7.892960 8.311834 0.984955 -1.432325 1.277252 -2.606444 -10.140721 -47.370149 -35.862134 
-0.033025 -0.010317 0.843976 -0.000000 0.000000 49.239377 0.000000 0.000000 -0.000000 -6.717372 -2.147718 -0.239359 9.995273 0.252679 2.058367 0.000000 0.030699 0.250024 9.198218 -1.342380 -5.593854 0.000000 0.003314 0.189830 0.271602 0.000001 -0.000003 0.000000 0.030699 0.250024 -1.001060 0.001074 0.122794 0.159135 0.000000 0.000000 -0.565336 80.764152 0.613495 0.273564 0.000121 0.001002 0.706481 8.569457 -8.140630 0.000000 0.030699 0.250023 -0.945049 0.000956 0.115895 -0.159135 0.000000 0.000000 22.150051 -78.145103 27.120608 -0.268412 0.000121 0.001002 0.491800 -6.547133 7.412661 0.000000 -0.000000 0.000000 -1.760716 -0.000001 -0.000048 0.000000 -0.000000 0.000000 -1.760716 -0.000000 0.000000 0.107734 0.000000 0.003312 9.540564 3.582219 0.202456 0.020459 -0.000000 -0.390378 -9.135249 -8.780932 -1.177870 1.234789 3.609825 -8.618712 -26.426401 49.352211 48.996065 -0.107734 -0.000000 -0.003312 9.559881 -4.769619 -0.103335 -0.021327 -0.000000 -0.406942 -7.929064 8.322136 0.990182 -1.394470 1.321048 -2.717711 -10.099603 -47.377522 -35.931382 
-0.032875 -0.010447 0.843919 -0.000000 0.000000 49.311418 0.000000 -0.000000 -0.000000 -6.745919 -2.147610 -0.239898 9.995695 0.246329 2.006590 0.000000 0.030699 0.250024 9.272620 -1.320023 -5.619489 0.000000 0.003314 0.189830 0.259712 0.000000 -0.000013 0.000000 0.030699 0.250024 -1.011360 0.001096 0.124102 0.159135 -0.000000 0.000000 -1.116967 80.808815 1.260391 0.273564 0.000121 0.001002 0.711005 8.521187 -8.268706 0.000000 0.030699 0.250024 -0.955306 0.000977 0.117217 -0.159135 0.000000 -0.000000 22.038548 -78.149085 26.984218 -0.268412 0.000121 0.001002 0.489768 -6.520754 7.415238 0.000000 0.000000 -0.000000 -1.736340 0.000001 0.000032 0.000000 0.000000 -0.000000 -1.736372 -0.000000 -0.000002 0.107736 0.000000 0.003266 9.553581 3.573742 0.203444 0.020459 -0.000000 -0.390378 -9.159988 -8.785315 -1.181430 1.219359 3.632073 -8.674242 -26.438824 49.361647 48.962023 -0.107736 0.000000 -0.003266 9.605786 -4.783381 -0.102676 -0.021327 -0.000000 -0.406942 -7.963177 8.338676 0.995602 -1.372918 1.364459 -2.823486 -10.109783 -47.414333 -36.005335 
